<?xml version="1.0" encoding="UTF-8" standalone="no"?>
<!-- Created with Inkscape (http://www.inkscape.org/) -->

<svg
   width="128"
   height="200"
   viewBox="0 0 127.99999 199.99999"
   version="1.1"
   id="svg1"
   inkscape:version="1.4.4 (dcaf3e7d9e, 2026-05-05)"
   sodipodi:docname="banner_vertical.svg"
   xmlns:inkscape="http://www.inkscape.org/namespaces/inkscape"
   xmlns:sodipodi="http://sodipodi.sourceforge.net/DTD/sodipodi-0.dtd"
   xmlns="http://www.w3.org/2000/svg"
   xmlns:svg="http://www.w3.org/2000/svg">
  <style
     id="style1">fill: white;.dark { #g6 }
</style>
  <style>@media (prefers-color-scheme: dark) { #text2 { fill: white; } }</style>
  <sodipodi:namedview
     id="namedview1"
     pagecolor="#ffffff"
     bordercolor="#000000"
     borderopacity="0.25"
     inkscape:showpageshadow="2"
     inkscape:pageopacity="0.0"
     inkscape:pagecheckerboard="false"
     inkscape:deskcolor="#d1d1d1"
     inkscape:document-units="px"
     showborder="false"
     inkscape:zoom="2"
     inkscape:cx="143.25"
     inkscape:cy="170.25"
     inkscape:window-width="1920"
     inkscape:window-height="1011"
     inkscape:window-x="1920"
     inkscape:window-y="32"
     inkscape:window-maximized="1"
     inkscape:current-layer="svg1"
     showgrid="false" />
  <defs
     id="defs1" />
  <g
     id="text2"
     style="stroke-width:7.55909;stroke-linecap:round"
     aria-label="opynsim&#10;Ecosystem Handbook"
     inkscape:label="Text"
     transform="translate(7.75e-6,1)">
    <path
       d="m 29.679887,151.2244 v -10.584 q 0.591459,-0.15565 1.354129,-0.21791 0.778235,-0.0778 1.431953,-0.0778 2.288011,0 3.424234,0.88719 1.151787,0.87162 1.151787,2.49035 0,1.22961 -0.575893,1.97672 -0.56033,0.7471 -1.634294,1.08953 -1.0584,0.32685 -2.552611,0.32685 h -1.385258 v 4.10909 z m 1.214047,-5.15192 h 1.276305 q 1.105094,0 1.914458,-0.18678 0.809365,-0.20234 1.245176,-0.71597 0.451377,-0.51364 0.451377,-1.46308 0,-0.91832 -0.466941,-1.41639 -0.466941,-0.49807 -1.214047,-0.70041 -0.747105,-0.20234 -1.587599,-0.20234 -0.544765,0 -0.949447,0.0467 -0.389117,0.0311 -0.669282,0.0623 z m 8.015814,5.15192 v -7.68897 q 0.404682,-0.17121 1.105093,-0.34242 0.715977,-0.18678 1.712117,-0.18678 0.326859,0 0.638153,0.0467 0.326859,0.0311 0.575894,0.0934 0.2646,0.0467 0.389118,0.0934 l -0.233471,0.99615 q -0.140082,-0.0623 -0.5292,-0.12452 -0.389117,-0.0778 -0.996141,-0.0778 -0.591458,0 -0.980576,0.0934 -0.389117,0.0778 -0.513635,0.14008 v 6.95743 z m 8.327088,0.17121 q -0.871623,0 -1.55647,-0.24904 -0.684847,-0.24903 -1.073964,-0.80936 -0.389118,-0.56033 -0.389118,-1.47865 0,-0.88719 0.435812,-1.43195 0.435812,-0.56033 1.198482,-0.80937 0.778235,-0.24903 1.743246,-0.24903 0.435812,0 0.918318,0.0778 0.482505,0.0778 0.607023,0.14009 v -0.46695 q 0,-0.5292 -0.140082,-1.0117 -0.124518,-0.49807 -0.5292,-0.80937 -0.404682,-0.31129 -1.229612,-0.31129 -0.856058,0 -1.307434,0.12452 -0.451377,0.12452 -0.669282,0.20234 l -0.155647,-0.99614 q 0.280164,-0.12452 0.856058,-0.23347 0.575894,-0.10896 1.354129,-0.10896 1.105094,0 1.743246,0.38912 0.653718,0.38912 0.933882,1.07397 0.29573,0.66928 0.29573,1.5409 v 5.05853 q -0.326859,0.0778 -1.167353,0.21791 -0.840494,0.14008 -1.867764,0.14008 z m 0.171212,-0.99614 q 0.544764,0 0.980576,-0.0311 0.435812,-0.0467 0.731541,-0.10896 v -2.70825 q -0.155647,-0.0778 -0.5292,-0.15565 -0.373553,-0.0778 -0.965011,-0.0778 -0.498071,0 -1.011706,0.10895 -0.513635,0.10895 -0.871623,0.43581 -0.342423,0.32686 -0.342423,0.98058 0,0.87162 0.544764,1.21404 0.544765,0.34243 1.463082,0.34243 z m 7.922432,3.75109 q -0.76267,0 -1.416388,-0.12452 -0.653717,-0.12452 -1.120658,-0.28016 l 0.23347,-1.02727 q 0.389118,0.15564 1.027271,0.28016 0.638152,0.14008 1.307434,0.14008 0.933882,0 1.509776,-0.23347 0.575894,-0.23347 0.840494,-0.7471 0.280165,-0.51364 0.280165,-1.35413 v -0.51364 q -0.217906,0.15565 -0.747106,0.38912 -0.5292,0.21791 -1.354129,0.21791 -0.949447,0 -1.774376,-0.38912 -0.809364,-0.40468 -1.307434,-1.26074 -0.482506,-0.85606 -0.482506,-2.24132 0,-1.15179 0.451376,-2.05454 0.466941,-0.90275 1.323,-1.41639 0.871623,-0.5292 2.070105,-0.5292 1.089529,0 1.78994,0.15565 0.715976,0.14008 1.167353,0.28017 v 7.29984 q 0,1.82107 -0.949447,2.61487 -0.933882,0.7938 -2.84834,0.7938 z m 0.607023,-4.28029 q 0.638153,0 1.182917,-0.18678 0.56033,-0.18678 0.856059,-0.43581 v -5.01183 q -0.249035,-0.0778 -0.653717,-0.14009 -0.404683,-0.0623 -1.136224,-0.0623 -0.840493,0 -1.431952,0.37356 -0.591459,0.37355 -0.902753,1.0584 -0.311294,0.66928 -0.311294,1.55647 0,0.76267 0.202342,1.30743 0.202341,0.54477 0.544764,0.88719 0.342423,0.34242 0.76267,0.49807 0.435812,0.15565 0.887188,0.15565 z m 5.805617,1.35413 v -7.78235 q 0.482506,-0.12452 1.229611,-0.28017 0.747106,-0.15565 1.8522,-0.15565 0.778235,0 1.322999,0.21791 0.560329,0.21791 0.902753,0.65372 0.140082,-0.10896 0.49807,-0.3113 0.357988,-0.2179 0.902753,-0.38911 0.560329,-0.17122 1.26074,-0.17122 1.245176,0 1.867764,0.48251 0.638153,0.46694 0.856059,1.30743 0.217906,0.82493 0.217906,1.91446 v 4.51377 h -1.167353 v -4.18691 q 0,-1.02727 -0.140082,-1.68099 -0.140082,-0.66928 -0.544765,-0.99614 -0.404682,-0.32686 -1.198482,-0.32686 -0.575893,0 -1.011705,0.14009 -0.420247,0.12451 -0.700412,0.29573 -0.264599,0.17121 -0.389117,0.2646 0.140082,0.38911 0.202341,0.88718 0.07782,0.49807 0.07782,1.04284 v 4.56046 h -1.167353 v -4.18691 q 0,-1.02727 -0.140082,-1.68099 -0.140083,-0.66928 -0.560329,-0.99614 -0.404683,-0.32686 -1.229612,-0.32686 -0.451376,0 -0.824929,0.0467 -0.357988,0.0311 -0.607023,0.0778 -0.233471,0.0467 -0.342424,0.0778 v 6.98855 z m 15.875977,0.17121 q -0.871623,0 -1.55647,-0.24904 -0.684846,-0.24903 -1.073964,-0.80936 -0.389117,-0.56033 -0.389117,-1.47865 0,-0.88719 0.435811,-1.43195 0.435812,-0.56033 1.198482,-0.80937 0.778235,-0.24903 1.743247,-0.24903 0.435811,0 0.918317,0.0778 0.482506,0.0778 0.607023,0.14009 v -0.46695 q 0,-0.5292 -0.140082,-1.0117 -0.124518,-0.49807 -0.5292,-0.80937 -0.404682,-0.31129 -1.229611,-0.31129 -0.856059,0 -1.307435,0.12452 -0.451376,0.12452 -0.669282,0.20234 l -0.155647,-0.99614 q 0.280164,-0.12452 0.856058,-0.23347 0.575894,-0.10896 1.354129,-0.10896 1.105094,0 1.743247,0.38912 0.653717,0.38912 0.933882,1.07397 0.295729,0.66928 0.295729,1.5409 v 5.05853 q -0.326859,0.0778 -1.167353,0.21791 -0.840493,0.14008 -1.867764,0.14008 z m 0.171212,-0.99614 q 0.544765,0 0.980576,-0.0311 0.435812,-0.0467 0.731541,-0.10896 v -2.70825 q -0.155647,-0.0778 -0.5292,-0.15565 -0.373552,-0.0778 -0.965011,-0.0778 -0.49807,0 -1.011706,0.10895 -0.513635,0.10895 -0.871623,0.43581 -0.342423,0.32686 -0.342423,0.98058 0,0.87162 0.544764,1.21404 0.544765,0.34243 1.463082,0.34243 z m 8.015817,0.99614 q -1.027271,0 -1.618729,-0.35799 -0.591459,-0.35799 -0.840494,-1.07396 -0.233471,-0.71598 -0.233471,-1.78995 v -7.34653 l 1.167353,-0.20235 v 2.53705 h 3.159634 v 0.98058 h -3.159634 v 4.12464 q 0,0.85606 0.186776,1.30744 0.202342,0.45137 0.56033,0.62259 0.373552,0.15564 0.871623,0.15564 0.591458,0 0.980576,-0.14008 0.404682,-0.14008 0.638153,-0.24903 l 0.249035,0.94944 q -0.233471,0.14008 -0.778235,0.3113 -0.5292,0.17121 -1.182917,0.17121 z m 3.48649,-0.17121 v -8.06252 h 1.167352 v 8.06252 z m 0.591458,-9.7902 q -0.342423,0 -0.591458,-0.23347 -0.233471,-0.23347 -0.233471,-0.62259 0,-0.37355 0.233471,-0.60702 0.249035,-0.23347 0.591458,-0.23347 0.342424,0 0.575894,0.23347 0.249035,0.23347 0.249035,0.60702 0,0.38912 -0.249035,0.62259 -0.23347,0.23347 -0.575894,0.23347 z m 6.583838,9.96141 q -1.276305,0 -2.132363,-0.51364 -0.856059,-0.5292 -1.291871,-1.47864 -0.435811,-0.94945 -0.435811,-2.19463 0,-1.26074 0.451376,-2.21018 0.451376,-0.94945 1.29187,-1.47865 0.856059,-0.54477 2.023411,-0.54477 0.638153,0 1.214047,0.10896 0.575894,0.10895 0.902752,0.28016 l -0.295729,0.98058 q -0.311294,-0.14008 -0.700411,-0.23347 -0.389118,-0.0934 -1.027271,-0.0934 -1.29187,0 -1.976716,0.84049 -0.669283,0.8405 -0.669283,2.35027 0,0.93389 0.280165,1.64986 0.280165,0.70041 0.902753,1.1051 0.622588,0.38911 1.649858,0.38911 0.607023,0 1.058399,-0.14008 0.466941,-0.14008 0.684847,-0.24903 l 0.233471,0.99614 q -0.29573,0.15564 -0.902753,0.29573 -0.607023,0.14008 -1.260741,0.14008 z"
       id="path3"
       style="stroke-width:7.55907;stroke-linecap:round" />
    <path
       d="m 8.6442645,170.68027 q 0.062259,-1.43195 0.1400823,-2.84834 0.077824,-1.41639 0.1712117,-2.77052 0.093388,-1.36969 0.2023411,-2.66156 0.1089529,-1.30743 0.2490352,-2.50592 h 1.0895292 q 0.451376,0.74711 0.949446,1.74325 0.513636,0.98058 1.027271,2.07011 0.513635,1.07396 0.980576,2.11679 0.482505,1.04284 0.856058,1.88333 0.373553,-0.84049 0.840494,-1.88333 0.482506,-1.04283 0.996141,-2.11679 0.513635,-1.08953 1.02727,-2.07011 0.513635,-0.99614 0.949447,-1.74325 h 1.02727 q 0.140082,1.19849 0.249035,2.50592 0.124518,1.29187 0.202341,2.66156 0.09339,1.35413 0.171212,2.77052 0.09339,1.41639 0.155647,2.84834 h -1.214047 q -0.06226,-1.5876 -0.140082,-3.11294 -0.06226,-1.5409 -0.155647,-2.97286 -0.09339,-1.43195 -0.217906,-2.70825 -0.155647,0.29572 -0.49807,0.98057 -0.326859,0.66928 -0.747106,1.55647 -0.420247,0.87162 -0.856058,1.78994 -0.420247,0.91832 -0.778235,1.69655 -0.342424,0.77824 -0.5292,1.22962 h -1.042835 q -0.186776,-0.45138 -0.544764,-1.22962 -0.342424,-0.77823 -0.778235,-1.69655 -0.420247,-0.91832 -0.840494,-1.78994 -0.420247,-0.88719 -0.762671,-1.55647 -0.326858,-0.68485 -0.482505,-0.98057 -0.124518,1.2763 -0.217906,2.70825 -0.09339,1.43196 -0.1712117,2.97286 -0.062259,1.52534 -0.1245176,3.11294 z m 16.8565625,0.15565 q -1.214047,0 -1.930023,-0.45138 -0.700411,-0.46694 -1.011705,-1.30743 -0.29573,-0.8405 -0.29573,-1.94559 v -4.51376 h 1.167353 v 4.20247 q 0,1.08952 0.217906,1.74324 0.217906,0.65372 0.700411,0.94945 0.498071,0.28016 1.307435,0.28016 0.653717,0 1.151788,-0.0623 0.513635,-0.0778 0.669282,-0.12451 v -6.98855 h 1.151788 v 7.78235 q -0.466941,0.12451 -1.260741,0.28016 -0.778235,0.15565 -1.867764,0.15565 z m 7.471043,0.0311 q -1.042835,0 -1.634294,-0.18678 -0.575894,-0.17121 -0.778235,-0.2646 l 0.280165,-1.02727 q 0.171211,0.0623 0.700411,0.2646 0.5292,0.20234 1.431953,0.20234 0.856058,0 1.385258,-0.2646 0.5292,-0.2646 0.5292,-0.91832 0,-0.42024 -0.186777,-0.66928 -0.186776,-0.2646 -0.607023,-0.4825 -0.404682,-0.21791 -1.120658,-0.49807 -0.607024,-0.24904 -1.120659,-0.5292 -0.513635,-0.28017 -0.840494,-0.71598 -0.311294,-0.43581 -0.311294,-1.12066 0,-0.66928 0.342424,-1.16735 0.342423,-0.49807 0.965011,-0.77824 0.638153,-0.28016 1.509776,-0.28016 0.809364,0 1.369694,0.14008 0.560329,0.14008 0.793799,0.24904 l -0.2646,1.0117 q -0.202341,-0.10895 -0.653717,-0.24903 -0.451376,-0.15565 -1.276305,-0.15565 -0.653718,0 -1.136223,0.28017 -0.482506,0.2646 -0.482506,0.85605 0,0.42025 0.202341,0.68485 0.202341,0.24904 0.607023,0.45138 0.404682,0.20234 0.996141,0.43581 0.669282,0.2646 1.198482,0.56033 0.544764,0.28016 0.871623,0.73154 0.326859,0.45137 0.326859,1.19848 0,0.73154 -0.373553,1.24518 -0.373553,0.49807 -1.073964,0.7471 -0.684847,0.24904 -1.649858,0.24904 z m 8.420473,-0.0156 q -1.276305,0 -2.132364,-0.51363 -0.856058,-0.5292 -1.29187,-1.47865 -0.435812,-0.94945 -0.435812,-2.19462 0,-1.26074 0.451377,-2.21019 0.451376,-0.94945 1.29187,-1.47865 0.856058,-0.54476 2.023411,-0.54476 0.638153,0 1.214047,0.10895 0.575893,0.10896 0.902752,0.28017 l -0.295729,0.98057 q -0.311294,-0.14008 -0.700412,-0.23347 -0.389117,-0.0934 -1.02727,-0.0934 -1.29187,0 -1.976717,0.8405 -0.669282,0.84049 -0.669282,2.35027 0,0.93388 0.280165,1.64986 0.280164,0.70041 0.902752,1.10509 0.622588,0.38912 1.649859,0.38912 0.607023,0 1.058399,-0.14008 0.466941,-0.14009 0.684847,-0.24904 l 0.23347,0.99614 q -0.295729,0.15565 -0.902752,0.29573 -0.607023,0.14008 -1.260741,0.14008 z m 6.988521,-0.0156 q -1.214046,0 -1.930022,-0.45138 -0.700412,-0.46694 -1.011706,-1.30743 -0.295729,-0.8405 -0.295729,-1.94559 v -4.51376 h 1.167352 v 4.20247 q 0,1.08952 0.217906,1.74324 0.217906,0.65372 0.700412,0.94945 0.49807,0.28016 1.307434,0.28016 0.653718,0 1.151788,-0.0623 0.513635,-0.0778 0.669282,-0.12451 v -6.98855 h 1.151788 v 7.78235 q -0.466941,0.12451 -1.260741,0.28016 -0.778235,0.15565 -1.867764,0.15565 z m 7.922421,-0.0156 q -0.747106,-0.0311 -1.245176,-0.24903 -0.482506,-0.21791 -0.715976,-0.66928 -0.233471,-0.46695 -0.233471,-1.24518 v -9.85246 l 1.167353,-0.20234 v 9.97698 q 0,0.7471 0.2646,0.96501 0.280164,0.2179 0.933882,0.31129 z m 5.136338,0.0467 q -1.073965,0 -1.914458,-0.51364 -0.840494,-0.5292 -1.323,-1.47864 -0.466941,-0.94945 -0.466941,-2.22576 0,-1.2763 0.466941,-2.21018 0.482506,-0.94945 1.323,-1.47865 0.840493,-0.5292 1.914458,-0.5292 1.089529,0 1.930023,0.5292 0.840493,0.5292 1.307434,1.47865 0.482506,0.93388 0.482506,2.21018 0,1.27631 -0.482506,2.22576 -0.466941,0.94944 -1.307434,1.47864 -0.82493,0.51364 -1.930023,0.51364 z m 0,-1.04284 q 0.778235,0 1.338564,-0.38912 0.560329,-0.38911 0.856058,-1.10509 0.311294,-0.71598 0.311294,-1.68099 0,-0.96501 -0.311294,-1.68098 -0.295729,-0.71598 -0.856058,-1.1051 -0.560329,-0.38912 -1.338564,-0.38912 -0.762671,0 -1.323,0.38912 -0.560329,0.38912 -0.871623,1.1051 -0.295729,0.71597 -0.295729,1.68098 0,0.96501 0.295729,1.68099 0.311294,0.71598 0.871623,1.10509 0.560329,0.38912 1.323,0.38912 z m 7.595559,1.04284 q -1.042835,0 -1.634293,-0.18678 -0.575894,-0.17121 -0.778235,-0.2646 l 0.280164,-1.02727 q 0.171212,0.0623 0.700412,0.2646 0.529199,0.20234 1.431952,0.20234 0.856059,0 1.385258,-0.2646 0.5292,-0.2646 0.5292,-0.91832 0,-0.42024 -0.186776,-0.66928 -0.186777,-0.2646 -0.607024,-0.4825 -0.404682,-0.21791 -1.120658,-0.49807 -0.607023,-0.24904 -1.120658,-0.5292 -0.513635,-0.28017 -0.840494,-0.71598 -0.311294,-0.43581 -0.311294,-1.12066 0,-0.66928 0.342423,-1.16735 0.342424,-0.49807 0.965012,-0.77824 0.638152,-0.28016 1.509776,-0.28016 0.809364,0 1.369693,0.14008 0.560329,0.14008 0.7938,0.24904 l -0.2646,1.0117 q -0.202341,-0.10895 -0.653717,-0.24903 -0.451377,-0.15565 -1.276306,-0.15565 -0.653717,0 -1.136223,0.28017 -0.482506,0.2646 -0.482506,0.85605 0,0.42025 0.202341,0.68485 0.202342,0.24904 0.607024,0.45138 0.404682,0.20234 0.996141,0.43581 0.669282,0.2646 1.198481,0.56033 0.544765,0.28016 0.871624,0.73154 0.326858,0.45137 0.326858,1.19848 0,0.73154 -0.373552,1.24518 -0.373553,0.49807 -1.073965,0.7471 -0.684847,0.24904 -1.649858,0.24904 z m 5.027365,-0.18678 V 158.8044 l 1.167353,-0.20234 v 7.56445 q 0.373553,-0.37355 0.840494,-0.8405 0.466941,-0.46694 0.949446,-0.96501 0.482506,-0.49807 0.902753,-0.94944 0.420247,-0.45138 0.715976,-0.7938 h 1.385258 q -0.466941,0.49807 -1.105093,1.15178 -0.622588,0.65372 -1.276306,1.323 -0.638152,0.65372 -1.182917,1.18292 0.49807,0.34242 1.02727,0.87162 0.544765,0.51364 1.073965,1.12066 0.529199,0.60703 0.980576,1.22961 0.466941,0.62259 0.793799,1.18292 h -1.354129 q -0.466941,-0.7938 -1.120658,-1.55647 -0.653717,-0.77823 -1.338564,-1.41639 -0.684847,-0.63815 -1.29187,-1.02727 v 4.00013 z m 11.128745,0.17121 q -1.416387,0 -2.303575,-0.54476 -0.871624,-0.54477 -1.29187,-1.49421 -0.404683,-0.94945 -0.404683,-2.1635 0,-1.41638 0.513635,-2.35027 0.513636,-0.93388 1.323,-1.40082 0.824929,-0.46694 1.727682,-0.46694 1.011705,0 1.743246,0.43581 0.747106,0.42025 1.151788,1.30744 0.404682,0.87162 0.404682,2.22575 0,0.10895 -0.01557,0.2646 0,0.14008 -0.01556,0.2646 H 82.40521 q 0.06226,1.36969 0.731541,2.13236 0.684847,0.74711 2.116799,0.74711 0.7938,0 1.29187,-0.14008 0.513635,-0.15565 0.731541,-0.2646 l 0.202341,0.98057 q -0.217906,0.12452 -0.856058,0.29573 -0.622588,0.17121 -1.431952,0.17121 z M 82.43634,165.9796 h 4.43594 q -0.01557,-0.7938 -0.2646,-1.35413 -0.249035,-0.57589 -0.715976,-0.87162 -0.451377,-0.31129 -1.120659,-0.31129 -0.684846,0 -1.198482,0.35798 -0.513635,0.35799 -0.809364,0.93389 -0.280165,0.57589 -0.326859,1.24517 z m 9.992513,4.84062 q -0.747105,-0.0311 -1.245176,-0.24903 -0.482505,-0.21791 -0.715976,-0.66928 -0.23347,-0.46695 -0.23347,-1.24518 v -9.85246 l 1.167352,-0.20234 v 9.97698 q 0,0.7471 0.2646,0.96501 0.280165,0.2179 0.933882,0.31129 z m 5.432064,0.0311 q -1.416388,0 -2.303576,-0.54476 -0.871623,-0.54477 -1.29187,-1.49421 -0.404682,-0.94945 -0.404682,-2.1635 0,-1.41638 0.513635,-2.35027 0.513635,-0.93388 1.322999,-1.40082 0.824929,-0.46694 1.727682,-0.46694 1.011706,0 1.743246,0.43581 0.747106,0.42025 1.151789,1.30744 0.40468,0.87162 0.40468,2.22575 0,0.10895 -0.0156,0.2646 0,0.14008 -0.0156,0.2646 h -5.618855 q 0.06226,1.36969 0.731541,2.13236 0.684847,0.74711 2.116799,0.74711 0.7938,0 1.291871,-0.14008 0.513635,-0.15565 0.73154,-0.2646 l 0.202344,0.98057 q -0.217908,0.12452 -0.856061,0.29573 -0.622588,0.17121 -1.431952,0.17121 z m -2.754952,-4.87175 h 4.435939 q -0.01556,-0.7938 -0.2646,-1.35413 -0.249035,-0.57589 -0.715976,-0.87162 -0.451376,-0.31129 -1.120658,-0.31129 -0.684847,0 -1.198482,0.35798 -0.513635,0.35799 -0.809365,0.93389 -0.280164,0.57589 -0.326858,1.24517 z m 10.443885,4.87175 q -1.02727,0 -1.61872,-0.35799 -0.59146,-0.35798 -0.8405,-1.07396 -0.23347,-0.71598 -0.23347,-1.78994 v -7.34654 l 1.16735,-0.20234 v 2.53705 h 3.15964 v 0.98057 h -3.15964 v 4.12465 q 0,0.85606 0.18678,1.30743 0.20234,0.45138 0.56033,0.62259 0.37355,0.15565 0.87162,0.15565 0.59146,0 0.98058,-0.14008 0.40468,-0.14009 0.63815,-0.24904 l 0.24904,0.94945 q -0.23347,0.14008 -0.77824,0.31129 -0.5292,0.17121 -1.18292,0.17121 z m 5.899,0 q -0.87162,0 -1.55647,-0.24903 -0.68484,-0.24904 -1.07396,-0.80937 -0.38912,-0.56033 -0.38912,-1.47864 0,-0.88719 0.43581,-1.43196 0.43582,-0.56033 1.19849,-0.80936 0.77823,-0.24904 1.74324,-0.24904 0.43581,0 0.91832,0.0778 0.48251,0.0778 0.60702,0.14008 v -0.46694 q 0,-0.5292 -0.14008,-1.01171 -0.12452,-0.49807 -0.5292,-0.80936 -0.40468,-0.31129 -1.22961,-0.31129 -0.85606,0 -1.30743,0.12451 -0.45138,0.12452 -0.66929,0.20234 l -0.15564,-0.99614 q 0.28016,-0.12451 0.85605,-0.23347 0.5759,-0.10895 1.35413,-0.10895 1.1051,0 1.74325,0.38912 0.65372,0.38911 0.93388,1.07396 0.29573,0.66928 0.29573,1.54091 v 5.05852 q -0.32686,0.0778 -1.16735,0.21791 -0.84049,0.14008 -1.86777,0.14008 z m 0.17122,-0.99614 q 0.54476,0 0.98057,-0.0311 0.43581,-0.0467 0.73154,-0.10895 V 167.007 q -0.15564,-0.0778 -0.5292,-0.15565 -0.37355,-0.0778 -0.96501,-0.0778 -0.49807,0 -1.0117,0.10895 -0.51364,0.10896 -0.87163,0.43582 -0.34242,0.32685 -0.34242,0.98057 0,0.87162 0.54476,1.21405 0.54477,0.34242 1.46309,0.34242 z m 7.56444,0.96501 q -0.74711,-0.0311 -1.24518,-0.24903 -0.4825,-0.21791 -0.71598,-0.66928 -0.23347,-0.46695 -0.23347,-1.24518 v -9.85246 l 1.16736,-0.20234 v 9.97698 q 0,0.7471 0.2646,0.96501 0.28016,0.2179 0.93388,0.31129 z"
       id="path4"
       style="stroke-width:7.55907;stroke-linecap:round" />
    <path
       d="m 29.71881,190.13615 q 0.06226,-1.43196 0.140083,-2.84834 0.07782,-1.41639 0.171211,-2.77052 0.09339,-1.36969 0.202342,-2.66156 0.108952,-1.30744 0.249035,-2.50592 h 1.089529 q 0.451376,0.7471 0.949446,1.74325 0.513636,0.98057 1.027271,2.0701 0.513635,1.07396 0.980576,2.1168 0.482506,1.04283 0.856058,1.88333 0.373553,-0.8405 0.840494,-1.88333 0.482506,-1.04284 0.996141,-2.1168 0.513635,-1.08953 1.02727,-2.0701 0.513635,-0.99615 0.949447,-1.74325 h 1.02727 q 0.140082,1.19848 0.249035,2.50592 0.124518,1.29187 0.202341,2.66156 0.09339,1.35413 0.171212,2.77052 0.09339,1.41638 0.155647,2.84834 h -1.214047 q -0.06226,-1.5876 -0.140082,-3.11294 -0.06226,-1.54091 -0.155647,-2.97286 -0.09339,-1.43195 -0.217906,-2.70826 -0.155647,0.29573 -0.49807,0.98058 -0.326859,0.66928 -0.747106,1.55647 -0.420247,0.87162 -0.856058,1.78994 -0.420247,0.91831 -0.778235,1.69655 -0.342424,0.77823 -0.5292,1.22961 h -1.042835 q -0.186776,-0.45138 -0.544764,-1.22961 -0.342424,-0.77824 -0.778235,-1.69655 -0.420247,-0.91832 -0.840494,-1.78994 -0.420247,-0.88719 -0.762671,-1.55647 -0.326858,-0.68485 -0.482505,-0.98058 -0.124518,1.27631 -0.217906,2.70826 -0.09339,1.43195 -0.171212,2.97286 -0.06226,1.52534 -0.124517,3.11294 z m 16.949951,0.18677 q -1.073964,0 -1.914458,-0.51363 -0.840494,-0.5292 -1.322999,-1.47865 -0.466941,-0.94945 -0.466941,-2.22575 0,-1.27631 0.466941,-2.21019 0.482505,-0.94945 1.322999,-1.47865 0.840494,-0.52919 1.914458,-0.52919 1.089529,0 1.930023,0.52919 0.840494,0.5292 1.307435,1.47865 0.482506,0.93388 0.482506,2.21019 0,1.2763 -0.482506,2.22575 -0.466941,0.94945 -1.307435,1.47865 -0.824929,0.51363 -1.930023,0.51363 z m 0,-1.04283 q 0.778235,0 1.338564,-0.38912 0.56033,-0.38912 0.856059,-1.10509 0.311294,-0.71598 0.311294,-1.68099 0,-0.96501 -0.311294,-1.68099 -0.295729,-0.71598 -0.856059,-1.10509 -0.560329,-0.38912 -1.338564,-0.38912 -0.76267,0 -1.322999,0.38912 -0.560329,0.38911 -0.871623,1.10509 -0.29573,0.71598 -0.29573,1.68099 0,0.96501 0.29573,1.68099 0.311294,0.71597 0.871623,1.10509 0.560329,0.38912 1.322999,0.38912 z m 9.3855,1.04283 q -1.182917,0 -2.08567,-0.49807 -0.902752,-0.51363 -1.400823,-1.44752 -0.49807,-0.94944 -0.49807,-2.25688 0,-1.24517 0.420247,-2.19462 0.435811,-0.94945 1.245176,-1.47865 0.824929,-0.54476 1.976717,-0.54476 0.747105,0 1.307435,0.21791 0.575893,0.20234 0.856058,0.40468 v -4.26473 l 1.151788,-0.20234 v 11.82917 q -0.295729,0.0934 -0.731541,0.20234 -0.435812,0.0934 -0.996141,0.15565 -0.544764,0.0778 -1.245176,0.0778 z m 0.01557,-1.04283 q 0.684847,0 1.120658,-0.0623 0.451377,-0.0778 0.684847,-0.14008 v -5.46321 q -0.2646,-0.21791 -0.809364,-0.43581 -0.544765,-0.23348 -1.229612,-0.23348 -0.700411,0 -1.198482,0.24904 -0.482505,0.23347 -0.793799,0.66928 -0.29573,0.43581 -0.435812,1.01171 -0.124518,0.57589 -0.124518,1.22961 0,1.0117 0.342424,1.72768 0.357988,0.70041 0.980576,1.07396 0.638153,0.37356 1.463082,0.37356 z m 9.105335,1.02727 q -1.416388,0 -2.303576,-0.54477 -0.871623,-0.54476 -1.29187,-1.49421 -0.404682,-0.94944 -0.404682,-2.16349 0,-1.41639 0.513635,-2.35027 0.513635,-0.93388 1.323,-1.40082 0.824929,-0.46694 1.727681,-0.46694 1.011706,0 1.743247,0.43581 0.747105,0.42024 1.151788,1.30743 0.404682,0.87162 0.404682,2.22575 0,0.10896 -0.01557,0.2646 0,0.14009 -0.01556,0.2646 H 62.38908 q 0.06226,1.3697 0.731541,2.13237 0.684846,0.7471 2.116799,0.7471 0.7938,0 1.29187,-0.14008 0.513635,-0.15565 0.731541,-0.2646 l 0.202341,0.98058 q -0.217906,0.12451 -0.856059,0.29573 -0.622588,0.17121 -1.431952,0.17121 z m -2.754952,-4.87175 h 4.43594 q -0.01556,-0.7938 -0.2646,-1.35413 -0.249035,-0.5759 -0.715976,-0.87163 -0.451377,-0.31129 -1.120659,-0.31129 -0.684847,0 -1.198482,0.35799 -0.513635,0.35799 -0.809364,0.93388 -0.280165,0.57589 -0.326859,1.24518 z m 9.992507,4.84062 q -0.747105,-0.0311 -1.245176,-0.24904 -0.482505,-0.2179 -0.715976,-0.66928 -0.23347,-0.46694 -0.23347,-1.24517 v -9.85246 l 1.167352,-0.20234 v 9.97697 q 0,0.74711 0.2646,0.96501 0.280165,0.21791 0.933882,0.3113 z m 4.077939,0 q -0.747106,-0.0311 -1.245176,-0.24904 -0.482506,-0.2179 -0.715977,-0.66928 -0.23347,-0.46694 -0.23347,-1.24517 v -9.85246 l 1.167352,-0.20234 v 9.97697 q 0,0.74711 0.2646,0.96501 0.280165,0.21791 0.933882,0.3113 z m 1.89888,-0.14008 v -8.06252 h 1.167352 v 8.06252 z m 0.591458,-9.7902 q -0.342423,0 -0.591458,-0.23347 -0.233471,-0.23347 -0.233471,-0.62259 0,-0.37355 0.233471,-0.60702 0.249035,-0.23347 0.591458,-0.23347 0.342424,0 0.575894,0.23347 0.249035,0.23347 0.249035,0.60702 0,0.38912 -0.249035,0.62259 -0.23347,0.23347 -0.575894,0.23347 z m 3.190734,9.7902 v -7.78235 q 0.482506,-0.12452 1.260741,-0.28017 0.778235,-0.15565 1.867764,-0.15565 1.26074,0 1.961152,0.46695 0.700411,0.46694 0.980576,1.30743 0.295729,0.82493 0.295729,1.93002 v 4.51377 h -1.167352 v -4.18691 q 0,-1.10509 -0.202341,-1.75881 -0.202342,-0.65372 -0.684847,-0.94945 -0.482506,-0.29573 -1.338564,-0.29573 -0.653718,0 -1.151788,0.0778 -0.498071,0.0778 -0.653718,0.12452 v 6.98855 z m 11.424478,2.92616 q -0.76267,0 -1.416388,-0.12452 -0.653717,-0.12452 -1.120658,-0.28016 l 0.23347,-1.02727 q 0.389118,0.15564 1.027271,0.28016 0.638152,0.14008 1.307434,0.14008 0.933882,0 1.509776,-0.23347 0.575894,-0.23347 0.840494,-0.7471 0.280165,-0.51364 0.280165,-1.35413 v -0.51364 q -0.217906,0.15565 -0.747106,0.38912 -0.5292,0.21791 -1.354129,0.21791 -0.949446,0 -1.774376,-0.38912 -0.809364,-0.40468 -1.307434,-1.26074 -0.482506,-0.85606 -0.482506,-2.24132 0,-1.15179 0.451376,-2.05454 0.466941,-0.90275 1.323,-1.41639 0.871623,-0.5292 2.070105,-0.5292 1.089529,0 1.78994,0.15565 0.715977,0.14008 1.167353,0.28017 v 7.29984 q 0,1.82107 -0.949447,2.61487 -0.933882,0.7938 -2.84834,0.7938 z m 0.607023,-4.28029 q 0.638153,0 1.182918,-0.18678 0.560329,-0.18678 0.856058,-0.43581 v -5.01183 q -0.249035,-0.0778 -0.653717,-0.14009 -0.404683,-0.0623 -1.136223,-0.0623 -0.840494,0 -1.431953,0.37356 -0.591458,0.37355 -0.902752,1.0584 -0.311294,0.66928 -0.311294,1.55647 0,0.76267 0.202341,1.30743 0.202341,0.54477 0.544764,0.88719 0.342424,0.34242 0.76267,0.49807 0.435812,0.15565 0.887188,0.15565 z"
       id="path5"
       style="stroke-width:7.55907;stroke-linecap:round" />
  </g>
  <g
     id="g1"
     inkscape:label="HandbookLogo"
     transform="translate(-0.25908309,2)">
    <g
       id="g4"
       transform="matrix(1.0485959,0,0,1.0501486,-4.504825,0.940916)"
       inkscape:label="Book"
       style="stroke-width:0.952951">
      <path
         id="rect1"
         style="fill:#a05a2c;stroke:#000000;stroke-width:7.20341;stroke-linecap:round"
         d="M 20,115.875 V 6.9908295 h 91.1573 V 107.75"
         sodipodi:nodetypes="cccc"
         inkscape:label="Top" />
      <g
         id="path2"
         inkscape:label="Bottom"
         style="opacity:1;stroke-width:0.952951">
        <path
           style="baseline-shift:baseline;display:inline;overflow:visible;vector-effect:none;fill:#c87137;stroke-width:0.952951;stroke-linecap:round;enable-background:accumulate;stop-color:#000000;stop-opacity:1"
           d="M 111.1573,107.75 V 121.5 H 30.75 c -6.294839,0 -10.64475,-2.70874 -10.75,-5.625 -0.114302,-3.16707 4,-8.125 10.75,-8.125 h 80.4073"
           id="path5-5" />
        <path
           style="baseline-shift:baseline;display:inline;overflow:visible;vector-effect:none;stroke-width:0.952951;stroke-linecap:round;enable-background:accumulate;stop-color:#000000;stop-opacity:1"
           d="m 30.75,103.9707 c -4.300365,0 -7.927003,1.5999 -10.445313,3.81641 -2.518309,2.21651 -4.200698,4.93658 -4.082031,8.22461 0.118793,3.2915 2.409251,5.64504 5.00586,7.07812 2.596608,1.43309 5.83194,2.18946 9.521484,2.18946 h 84.1875 V 107.75 a 3.77953,3.77953 0 0 0 -3.7793,-3.7793 z m 0,7.5586 h 76.62695 v 6.1914 H 30.75 c -2.605295,0 -4.690771,-0.59769 -5.869141,-1.24804 -1.178369,-0.65035 -1.117058,-1.10962 -1.103515,-0.73438 0.0044,0.12096 0.323718,-1.22117 1.521484,-2.27539 1.197766,-1.05422 3.001537,-1.93359 5.451172,-1.93359 z"
           id="path6-6" />
      </g>
    </g>
    <g
       id="g39-5-2"
       transform="matrix(0.22629047,-0.07305207,0.07305207,0.22629047,-68.800556,42.800914)"
       inkscape:label="OPynSimLogo"
       style="fill:#ffb380;stroke-width:3.55554">
      <path
         style="fill:#ffb380;fill-opacity:1;stroke-width:20.3307;stroke-linejoin:bevel"
         d="m 577.59051,188.88674 -7.00546,21.84491 c 8.60253,0.25401 15.05369,-2.56362 18.56079,-4.6057 -5.52081,-4.43251 -9.55311,-10.44822 -11.55533,-17.23921 z"
         id="path30-3-9"
         sodipodi:nodetypes="cccc"
         transform="translate(-2.5795998e-6)"
         inkscape:label="logo-segment-6" />
      <path
         style="fill:#ffb380;fill-opacity:1;stroke-width:20.3307;stroke-linejoin:bevel"
         d="m 629.06772,208.60445 c -9.33738,5.75686 -20.84751,6.75792 -31.03855,2.69951 -7.55383,5.72306 -18.88932,9.30024 -30.25589,8.19557 l -3.69392,11.51862 c 3.53048,3.17997 7.37597,5.9917 11.47683,8.39157 45.74253,26.7683 56.84437,-13.97708 53.51153,-30.80527 z"
         id="path29-5-1"
         sodipodi:nodetypes="cccccc"
         inkscape:label="logo-segment-5" />
      <path
         style="fill:#ffb380;fill-opacity:1;stroke-width:20.3307;stroke-linejoin:bevel"
         d="m 645.48569,176.94404 c 0.66326,10.76874 -3.71666,19.49272 -8.52525,24.98485 4.13717,12.3198 2.11881,32.0705 -10.95632,45.39281 26.03395,-5.77603 62.32207,-31.9873 32.6114,-61.47497 -3.97315,-3.94333 -8.63617,-7.01329 -13.12983,-8.90269 z"
         id="path31-6-2"
         sodipodi:nodetypes="cccsc"
         inkscape:label="logo-segment-4" />
      <path
         style="fill:#ffb380;fill-opacity:1;stroke-width:20.3307;stroke-linejoin:bevel"
         d="m 663.85335,137.27074 c -13.51416,-4.30678 -28.99176,0.6902 -37.84923,9.70525 5.99771,2.45647 14.90702,8.30481 19.26825,19.74632 9.77287,2.50231 28.52373,12.79971 34.11266,33.82145 7.80927,-24.20102 1.26813,-57.91916 -15.53168,-63.27302 z"
         id="path33-2-7"
         sodipodi:nodetypes="scccs"
         inkscape:label="logo-segment-3" />
      <path
         style="fill:#ffb380;fill-opacity:1;stroke-width:20.3307;stroke-linejoin:bevel"
         d="m 629.35106,111.66237 c -50.60271,-13.877297 -59.61061,25.66714 -45.5512,45.71505 7.2417,-9.03161 18.51155,-13.85548 30.04506,-12.86028 7.72631,-10.93676 25.91728,-19.86291 43.93487,-17.26098 -7.57562,-6.8588 -17.19795,-12.51408 -28.42873,-15.59379 z"
         id="path34-9-0"
         sodipodi:nodetypes="ccccc"
         inkscape:label="logo-segment-2" />
      <path
         style="fill:#ffb380;fill-opacity:1;stroke-width:20.3307;stroke-linejoin:bevel"
         d="m 573.00115,120.11221 c -15.22793,9.8845 -24.46515,24.40286 -28.70318,37.618 l -24.70367,77.0154 c -1.15623,3.60541 12.75569,-13.01857 21.93346,-10.07534 9.17777,2.94322 10.43927,24.43316 11.60031,20.82931 l 25.63531,-79.57174 C 566.57349,151.501 568.15695,137.11236 573.00115,120.11221 Z"
         id="path32-1-9"
         sodipodi:nodetypes="sccsscs"
         transform="translate(-2.5795998e-6)"
         inkscape:label="logo-segment-1"
         onmouseout="dd" />
    </g>
    <g
       id="g4163"
       inkscape:label="OpenSimLogo"
       transform="matrix(0.04473685,0,0,-0.04473685,25.548278,99.66809)"
       style="display:inline;fill:#ffb380;stroke-width:27.9411">
      <g
         id="g4377"
         transform="matrix(10.156095,0,0,10.156095,147.15124,442.57297)"
         style="display:inline;fill:#ffb380;stroke-width:27.9411"
         inkscape:label="backdrop">
        <path
           d="m 0,0 c 0,-3.978 0.59,-7.794 1.764,-11.449 1.172,-3.654 2.868,-6.87 5.087,-9.643 2.219,-2.773 4.929,-4.991 8.126,-6.654 3.196,-1.663 6.815,-2.496 10.863,-2.496 4.047,0 7.668,0.833 10.867,2.496 3.195,1.663 5.903,3.881 8.123,6.654 2.219,2.773 3.915,5.989 5.088,9.643 1.178,3.655 1.762,7.471 1.762,11.449 0,3.982 -0.584,7.804 -1.762,11.455 -1.173,3.653 -2.869,6.866 -5.088,9.638 -2.22,2.777 -4.928,4.996 -8.123,6.659 -3.199,1.66 -6.82,2.496 -10.867,2.496 -4.048,0 -7.667,-0.836 -10.863,-2.496 C 11.78,26.089 9.07,23.87 6.851,21.093 4.632,18.321 2.936,15.108 1.764,11.455 0.59,7.804 0,3.982 0,0 m -10.375,0 c 0,5.289 0.965,10.016 2.888,14.195 1.922,4.174 4.514,7.715 7.783,10.619 3.263,2.907 7.096,5.121 11.503,6.654 4.399,1.536 9.082,2.304 14.041,2.304 4.96,0 9.644,-0.768 14.046,-2.304 4.408,-1.533 8.235,-3.747 11.502,-6.654 3.268,-2.904 5.857,-6.445 7.781,-10.619 1.92,-4.179 2.889,-8.906 2.889,-14.195 0,-5.282 -0.969,-10.015 -2.889,-14.188 -1.924,-4.18 -4.513,-7.722 -7.781,-10.621 -3.267,-2.905 -7.094,-5.124 -11.502,-6.66 -4.402,-1.528 -9.086,-2.297 -14.046,-2.297 -4.959,0 -9.642,0.769 -14.041,2.297 -4.407,1.536 -8.24,3.755 -11.503,6.66 -3.269,2.899 -5.861,6.441 -7.783,10.621 -1.923,4.173 -2.888,8.906 -2.888,14.188"
           style="display:inline;fill:#ffb380;fill-opacity:1;fill-rule:nonzero;stroke:none;stroke-width:27.9411"
           id="path4379"
           inkscape:connector-curvature="0" />
      </g>
      <g
         id="g4449"
         transform="matrix(10.156095,0,0,10.156095,526.50272,668.99193)"
         style="fill:#ffb380;stroke:none;stroke-width:11.0047;stroke-miterlimit:4;stroke-dasharray:none;stroke-opacity:1"
         inkscape:label="guy">
        <path
           d="m 0,0 c 0.042,-0.25 -1.083,-1 0,-0.875 1.083,0.125 -0.958,-0.833 -0.958,-0.833 0,0 -0.709,-0.084 -0.792,-1 -0.083,-0.917 -0.875,0.125 -0.708,0.625 0.166,0.5 0.207,1.5 0.916,1.833 0.709,0.333 1.5,0.5 1.542,0.25"
           style="fill:#ffb380;fill-opacity:1;fill-rule:nonzero;stroke:none;stroke-width:11.0047;stroke-miterlimit:4;stroke-dasharray:none;stroke-opacity:1"
           id="path4451"
           inkscape:connector-curvature="0" />
        <path
           d="M 0,0 C 0.02,0.632 -0.204,1.789 -0.892,2.258 -0.969,2.519 -1.38,2.69 -1.43,2.974 -1.484,3.301 -1.593,3.471 -1.859,3.691 -2.125,3.914 -2.302,3.726 -2.155,3.513 -2.011,3.3 -2.243,2.874 -2.087,2.822 -1.929,2.77 -1.874,2.684 -1.829,2.195 -1.943,2.054 -1.898,2 -2.021,1.941 -2.13,1.965 -2.271,1.977 -2.461,1.962 -2.968,2.127 -4.994,2.183 -5.973,2.479 -6.075,2.543 -7.771,2.9 -8.767,3.245 c -0.998,0.345 -5.111,0.323 -5.343,0.357 0,0 1.505,-0.916 1.222,-1.16 0,0 -0.192,-0.46 0.11,-0.64 0.303,-0.181 0.203,-0.807 1.402,-1.003 1.199,-0.195 6.535,-0.07 7.472,-0.247 C -3.896,0.55 -3.888,0.55 -3.88,0.548 l 0.179,-0.053 c 0.607,-0.115 1.163,-0.069 1.356,0.044 0.485,-0.141 0.597,-0.31 0.819,-0.464 0.115,-0.08 0.216,-0.141 0.318,-0.205 0.176,-0.393 0.15,-0.749 0.191,-0.831 0.053,-0.156 0.032,-0.266 0.204,-0.217 0.028,-0.025 0.055,0.021 0.077,0.083 0.064,0.111 0.124,0.308 0.166,0.467 0.096,-0.125 0.167,-0.266 0.166,-0.471 -0.005,-0.606 0.173,-1.425 0.154,-1.707 -0.022,-0.28 0.479,-0.036 0.481,1.053 C 0.234,-0.663 0.134,-0.373 0,0"
           style="display:inline;fill:#ffb380;fill-opacity:1;fill-rule:nonzero;stroke:none;stroke-width:11.0047;stroke-miterlimit:4;stroke-dasharray:none;stroke-opacity:1"
           id="path4447"
           inkscape:connector-curvature="0"
           transform="translate(22.489199,-3.4022987)" />
        <path
           d="m 0,0 c 1.138,-0.246 1.57,-1.247 2.769,-1.536 1.196,-0.29 2.842,-0.258 3.196,-0.487 0.354,-0.228 0.953,-0.018 0.953,-0.018 0,0 -0.306,0.836 -1.072,1.196 C 5.078,-0.484 2.847,0.136 1.635,0.223 0.422,0.311 -0.326,0.07 0,0"
           style="display:inline;fill:#ffb380;fill-opacity:1;fill-rule:nonzero;stroke:none;stroke-width:11.0047;stroke-miterlimit:4;stroke-dasharray:none;stroke-opacity:1"
           id="path4443"
           inkscape:connector-curvature="0"
           transform="translate(2.7920018,-0.54189947)" />
        <path
           d="M 0,0 C 0.761,-0.116 2.691,-1.042 1.905,-1.396 1.117,-1.75 0.228,-1.51 -0.777,-1.442 c -1.006,0.067 -0.755,0.64 -1.934,0.448 -1.18,-0.191 -0.879,0.376 -0.558,0.581 C -2.949,-0.208 -1.597,0.244 0,0"
           style="display:inline;fill:#ffb380;fill-opacity:1;fill-rule:nonzero;stroke:none;stroke-width:11.0047;stroke-miterlimit:4;stroke-dasharray:none;stroke-opacity:1"
           id="path4439"
           inkscape:connector-curvature="0"
           transform="translate(2.0498001,-0.84080093)" />
        <path
           d="M 0,0 C 0.126,0.037 0.264,0.132 0.407,0.246 0.975,0.332 1.748,0.55 2.041,0.734 2.38,0.948 4.593,2.335 4.195,2.43 3.918,2.495 4.262,2.852 4.393,3.043 4.948,3.343 5.21,3.602 4.639,3.621 3.58,3.658 1.798,2.997 0.872,1.821 0.409,1.234 0.008,0.727 -0.187,0.391 -0.197,0.377 -0.214,0.36 -0.221,0.35 -0.229,0.337 -0.216,0.332 -0.22,0.321 -0.367,0.038 -0.338,-0.1 0,0"
           style="display:inline;fill:#ffb380;fill-opacity:1;fill-rule:nonzero;stroke:none;stroke-width:11.0047;stroke-miterlimit:4;stroke-dasharray:none;stroke-opacity:1"
           id="path4395"
           inkscape:connector-curvature="0"
           transform="translate(-22.003001,-3.2861008)" />
        <path
           d="m 0,0 c -1.277,-0.321 -1.971,-0.121 -2.893,-0.474 -0.924,-0.353 -0.831,0.168 -0.178,0.435 0.653,0.268 1.77,0.394 2.346,0.352 C -0.147,0.269 0.485,0.122 0,0"
           style="display:inline;fill:#ffb380;fill-opacity:1;fill-rule:nonzero;stroke:none;stroke-width:11.0047;stroke-miterlimit:4;stroke-dasharray:none;stroke-opacity:1"
           id="path4435"
           inkscape:connector-curvature="0"
           transform="translate(1.8750009)" />
        <path
           d="m 0,0 c 0.314,-2.509 -1.377,-9.349 -2.021,-11.58 -0.375,-1.304 -0.991,-3.511 -1.414,-5.285 -0.005,-0.017 -0.014,-0.022 -0.02,-0.039 -0.224,-0.67 -0.512,-0.407 -0.511,0.312 0.541,2.019 1.653,6.007 2.24,8.591 0.737,3.241 1.861,10.109 0.698,9.104 0,0 -1.702,-2.414 -3.076,-5.56 0.015,0.044 0.022,0.092 0.037,0.136 -0.1,-0.222 -0.232,-0.554 -0.384,-0.966 C -4.46,-5.309 -4.47,-5.33 -4.479,-5.353 -4.497,-5.4 -4.514,-5.455 -4.532,-5.505 -5.896,-9.242 -8.78,-18.746 -7.977,-20.049 c 0,0 0.417,-0.838 0.197,-2.406 -0.032,-0.028 -0.061,-0.048 -0.095,-0.094 -1.028,-1.384 -1.113,-4.576 -0.804,-5.212 -0.069,-0.735 -0.096,-1.418 -0.04,-1.952 -0.083,-1.244 -0.247,-4.059 -0.307,-5.267 -0.358,-0.503 -0.481,-0.674 -0.481,-0.893 -0.251,-0.122 -0.496,-0.348 -0.698,-0.448 -0.074,-0.037 -0.239,-0.365 -0.365,-0.644 -0.168,-0.373 -0.263,-1.3 -0.211,-1.866 -0.075,-0.189 -0.144,-0.358 -0.193,-0.468 -0.081,-0.182 -0.844,-1.408 -1.288,-1.891 -0.432,-0.472 -0.71,-1.707 -0.645,-1.951 -0.162,-0.494 -0.178,-1.862 -0.281,-2.422 -0.107,-0.591 0.806,-0.698 0.806,-0.698 0,0 0.289,0.25 0.438,0.2 0.281,-0.093 0.448,0.082 0.527,0.445 0.063,0.278 0.339,1.099 0.463,1.391 0.031,0 0.058,-0.014 0.08,-0.04 0.033,-0.207 0.093,-0.559 -0.1,-1.07 -0.242,-0.644 0.537,-0.272 0.748,0.149 0.125,0.25 0.258,0.132 0.377,0.253 0.124,0.12 0.717,0.122 0.811,0.747 0.229,0.104 0.477,1.768 0.5,2 0.078,0.275 0.144,0.668 0.179,0.916 0.202,0.522 1.006,1.971 1.006,2.415 0,0.01 -0.003,0.013 -0.003,0.023 0.251,0.51 0.474,1.004 0.568,1.427 0.162,0.241 0.125,1.501 -0.01,1.986 0.297,0.972 0.745,2.273 1.165,3.395 0.593,1.589 3.209,8.162 2.141,10.501 0.037,1.277 -0.043,1.617 0.444,3.008 0.8,1.515 2.033,4.44 3.097,7.72 C 1.734,-5.592 0.173,3.377 0.173,3.377 -0.17,4.274 -0.314,2.507 0,0"
           style="display:inline;fill:#ffb380;fill-opacity:1;fill-rule:nonzero;stroke:none;stroke-width:11.0047;stroke-miterlimit:4;stroke-dasharray:none;stroke-opacity:1"
           id="path4387"
           inkscape:connector-curvature="0"
           transform="translate(-2.3329999,-18.896398)" />
        <path
           d="m 0,0 c -0.328,-0.149 -1.044,-0.715 -1.928,-1.382 -0.883,-0.668 -2.528,-1.63 -1.828,-1.6 0,0 2.424,0.237 3.165,1.446 C 0.148,-0.327 0.328,0.149 0,0"
           style="display:inline;fill:#ffb380;fill-opacity:1;fill-rule:nonzero;stroke:none;stroke-width:11.0047;stroke-miterlimit:4;stroke-dasharray:none;stroke-opacity:1"
           id="path4391"
           inkscape:connector-curvature="0"
           transform="translate(-18.0645,-31.0771)" />
        <path
           d="M 0,0 C 0.417,-0.113 1.937,0.662 1.922,0.937 1.909,1.208 1.604,0.982 0.967,1.074 0.327,1.165 0.22,1.974 0.22,1.974 0.098,1.504 -0.419,0.115 0,0"
           style="display:inline;fill:#ffb380;fill-opacity:1;fill-rule:nonzero;stroke:none;stroke-width:11.0047;stroke-miterlimit:4;stroke-dasharray:none;stroke-opacity:1"
           id="path4403"
           inkscape:connector-curvature="0"
           transform="translate(-8.9004016,0.94929904)" />
        <path
           d="M 0,0 C 0.763,0.104 2.488,-0.564 3.417,-0.366 4.142,-0.211 4.901,-0.011 4.785,0.229 4.793,0.227 4.8,0.227 4.808,0.224 4.808,0.224 4.78,0.24 4.771,0.246 4.732,0.306 4.649,0.366 4.489,0.43 4.275,0.571 3.994,0.763 3.748,0.955 3.291,1.313 1.977,1.261 1.382,1.188 0.875,1.125 0.324,0.973 0.021,0.794 -0.17,0.736 -0.338,0.663 -0.474,0.567 -1.083,0.138 -0.761,-0.104 0,0"
           style="display:inline;fill:#ffb380;fill-opacity:1;fill-rule:nonzero;stroke:none;stroke-width:11.0047;stroke-miterlimit:4;stroke-dasharray:none;stroke-opacity:1"
           id="path4399"
           inkscape:connector-curvature="0"
           transform="translate(-4.7813011,2.3505989)" />
        <path
           d="M 0,0 C 1.197,0.36 2.618,0.436 3.974,0.228 5.33,0.021 7.263,-0.231 7.981,-0.496 8.699,-0.762 10.057,-1.655 10.364,-1.785 10.671,-1.913 9.993,-1.81 8.879,-1.884 7.766,-1.957 5.247,-1.082 4.359,-0.962 3.472,-0.842 1.808,-0.506 1.18,-0.457 0.55,-0.41 -0.702,-0.211 0,0"
           style="display:inline;fill:#ffb380;fill-opacity:1;fill-rule:nonzero;stroke:none;stroke-width:11.0047;stroke-miterlimit:4;stroke-dasharray:none;stroke-opacity:1"
           id="path4431"
           inkscape:connector-curvature="0"
           transform="translate(-0.87599868,1.4141002)" />
        <path
           d="m 0,0 c -0.027,0.05 -0.052,0.081 -0.074,0.102 -0.002,0.022 0.115,1.42 0.053,1.525 -0.25,0.416 -0.779,-0.976 -1.078,-1.259 -0.297,-0.283 -1.645,-1.993 -2.005,-2.2 -0.292,-0.166 1.638,-0.92 1.63,-1.272 -0.005,-0.353 -0.456,-0.616 -0.533,-0.726 -0.056,0.083 -0.289,0.178 -0.575,0.257 0.022,0.023 -0.365,0.593 -0.791,0.646 -0.24,0.03 -1.753,0.266 -2.656,0.212 -0.904,-0.053 -1.807,-0.69 -1.488,-0.956 0.083,-0.069 -2.895,0.094 -1.754,0.793 0.26,0.038 0.503,0.053 0.738,0.033 0.644,-0.052 -0.15,1.077 -0.025,1.39 0.007,0.017 -0.002,0.03 -0.002,0.046 0.2,0.236 0.116,1.237 -0.133,1.57 -0.323,0.43 -0.574,0.254 -1.646,0.04 -1.075,-0.214 -0.663,0.175 -0.072,0.39 0.591,0.214 1.395,1.127 0.857,1.341 -0.081,0.032 -0.206,0.024 -0.348,0 0.173,0.082 0.339,0.17 0.498,0.271 0.082,-0.012 0.456,0.322 0.588,0.438 0.043,-0.305 0.18,-0.365 0.413,0.118 0.426,0.883 1.018,2.002 1.115,3.122 0.096,1.123 0.039,1.579 -0.084,1.281 0,0 -0.671,-1.456 -1.08,-2.569 -0.388,-0.002 -0.518,0.629 -0.316,0.983 0.143,0.25 0.081,0.599 0.002,0.855 0.294,0.178 0.542,0.395 0.717,0.676 0.434,0.706 0.768,1.247 0.456,2.203 -0.221,0.674 0.186,0.997 0.186,0.997 0,0 -0.186,2.428 -0.705,1.971 0,0 -0.634,0.874 -0.894,1.426 -0.222,0.472 -0.374,1.461 -0.892,1.773 -0.501,0.301 -2.138,0.477 -3.342,-0.187 -0.409,-0.225 -1.339,-1.098 -1.475,-1.552 -0.136,-0.454 -0.711,-2.442 -1.318,-2.22 -0.611,0.22 -0.334,0.609 -0.169,0.525 0.169,-0.083 0.306,0.111 0.306,0.111 l 0.027,0.498 c 0,0 -1.3,-0.026 -0.967,-1.024 0.332,-0.996 0.469,-0.83 1.024,-1.024 0.553,-0.194 0.774,1.135 0.774,0.609 0,-0.526 -0.499,-0.886 -0.138,-1.219 0.36,-0.331 0.83,0.194 0.748,-0.249 -0.083,-0.442 -0.748,-1.883 -0.581,-2.242 0.165,-0.36 0.468,-0.637 0.442,-0.027 -0.028,0.608 0.166,0.553 0.277,0.442 0.11,-0.11 0.221,-0.775 0.442,-0.887 0.221,-0.109 0.361,0.333 0.638,0.388 0.256,0.053 0.371,0.025 0.521,-0.489 0.004,-0.052 0.713,-1.271 0.717,-2.155 -0.023,-0.004 -0.185,-0.835 -0.532,-1.246 -0.347,-0.412 -0.589,-0.476 -0.863,-0.605 -0.926,-0.436 -0.894,-0.555 -0.444,-0.66 -0.622,-0.371 -1.097,-1.32 -1.955,-1.699 -1.092,-0.482 -1.718,-0.921 -2.065,-1.074 -0.348,-0.154 0.311,-0.012 0.719,-0.187 0.009,-0.004 0.019,-0.006 0.029,-0.01 -0.154,-0.057 -0.31,-0.116 -0.472,-0.185 -0.034,0.035 -0.101,0.042 -0.21,0.003 -0.624,-0.224 -1.98,-0.212 -3.172,-0.894 -1.19,-0.684 -2.89,-1.992 -3.841,-2.764 -0.954,-0.772 -1.136,-1.409 -1.6,-1.957 -0.192,-0.227 -0.371,-0.458 -0.467,-0.633 -0.108,-0.048 -0.833,-0.163 -1.75,-0.618 -0.712,-0.353 -3.784,-1.872 -4.36,-2.295 -0.579,-0.422 -3.448,-2.099 -4.639,-2.703 -0.245,-0.125 -0.355,-0.214 -0.37,-0.272 -0.213,-0.079 -0.417,-0.158 -0.568,-0.225 -0.171,0.04 -0.333,0.035 -0.53,-0.055 -0.41,-0.186 -0.882,0.072 -1.301,-0.356 -0.417,-0.429 -0.745,-0.577 -1.024,-0.488 -0.279,0.09 -0.879,0.193 -0.848,-0.089 0.03,-0.284 0.65,-0.951 0.941,-0.72 0.194,0.156 0.417,0.161 0.657,0.242 0.134,-0.198 0.214,-0.074 -0.092,-0.544 -0.17,-0.316 -0.334,-0.39 -0.667,-0.701 -0.333,-0.31 -1.369,-1.093 -1.542,-1.408 -0.17,-0.317 -0.098,-0.534 0.144,-0.542 0.239,-0.009 0.695,0.324 0.945,0.556 0.249,0.232 0.628,0.704 0.956,0.853 0.327,0.15 0.486,0.104 0.236,-0.17 -0.252,-0.272 -0.677,-0.901 -1.052,-1.291 -0.376,-0.391 -0.622,-0.898 -0.24,-1.106 0.262,-0.144 0.538,0.412 0.709,0.727 0.173,0.316 0.588,0.663 0.882,1.016 0.294,0.351 0.587,0.274 0.376,-0.041 -0.215,-0.314 -0.786,-1.274 -0.881,-1.713 -0.096,-0.44 0.075,-0.889 0.372,-0.496 0.296,0.391 0.37,0.979 0.748,1.449 0.38,0.471 0.502,0.52 0.657,0.353 0.017,-0.018 0.032,-0.015 0.047,-0.007 0.039,-0.306 0.098,-0.699 0.147,-1.01 -0.157,-0.453 -0.145,-0.786 -0.058,-1.27 0.099,-0.567 0.564,0.035 0.607,0.891 0.037,0.726 0.109,0.802 0.28,1.077 0.17,0.278 0.657,1.468 1.006,2.301 0.352,0.833 0.067,0.723 0.32,0.995 0.25,0.275 0.293,0.353 2.857,1.147 1.766,0.547 3.892,1.535 5.366,2.312 0.678,0.287 1.299,0.577 1.512,0.869 0,0 0.529,0.444 0.613,0.485 0.248,-0.081 0.859,0.121 0.866,0.348 0.191,0.118 1.214,1.169 1.672,1.461 0.458,0.291 2.084,0.802 2.667,1.11 0.583,0.306 1.208,0.598 2.295,1.337 1.063,0.722 1.775,1.186 1.872,1.706 0.071,0.362 0.215,1.345 0.441,1.784 0.225,0.438 0.478,0.829 0.526,1.243 0.075,-0.099 0.196,-0.252 0.336,-0.431 -0.108,-0.156 -0.117,-0.435 0.018,-0.89 -0.097,0.319 0.147,-1.143 0.345,-1.693 0.169,-0.466 1.168,-2.624 1.459,-3.083 0.291,-0.458 0.427,-2.401 0.636,-3.868 -0.107,-0.632 -0.208,-2.219 -0.136,-2.423 0.336,-2.563 0.015,-2.233 0.033,-2.313 -0.119,-0.202 -0.797,-0.959 -1.158,-1.201 -6.269,-4.181 -9.871,-9.544 -10.678,-11.971 -0.3,-0.903 -0.547,-1.807 -0.304,-2.513 0.046,-0.134 0.104,-0.25 0.165,-0.353 0.004,-0.018 0.003,-0.036 0.009,-0.053 0.098,-0.315 0.358,-0.429 0.714,-0.409 0.502,-0.283 1.267,-0.48 1.539,-0.399 0.566,0.169 4.307,2.674 6.649,5.169 1.271,1.351 2.321,3.126 3.13,5.655 0.15,0.471 0.385,1.683 0.275,2.971 0.309,-0.724 0.625,-3.437 0.184,-4.653 -1.09,-3.001 -2.629,-4.289 -2.392,-4.389 0.199,-0.082 1.393,-0.031 2.451,0.951 1.004,0.936 3.871,3.657 4.084,4.982 0.266,0.621 0.354,1.095 0.673,1.734 0.179,0.358 0.324,0.551 0.418,0.612 -0.228,-0.825 -1.093,-4.168 -0.832,-6.703 0.3,-2.91 -0.385,-5.138 0.176,-3.868 0.233,0.53 0.638,1.773 0.593,3.6 -10e-4,0.027 -10e-4,0.059 -10e-4,0.088 0.021,0.031 0.044,0.081 0.068,0.173 0.28,1.039 1.458,4.782 2.4,6.359 0.941,1.576 3.221,4.545 3.262,5.684 0.011,0.302 -0.656,-0.547 -1.467,-1.628 -0.179,-0.058 -0.17,0.203 -0.126,0.439 0.009,0.023 0.033,0.051 0.039,0.072 0.233,0.39 0.503,0.728 0.763,1.014 0.538,0.539 1.201,1.074 1.457,1.221 0.438,0.25 0.744,1.26 0.25,2 -0.12,0.179 0.217,0.305 0.246,1.704 0.091,0.984 0.138,2.137 0.058,2.197 0.004,0.352 0.001,0.688 -0.018,0.961 0.009,0.618 0.011,1.367 -0.021,2.011 -0.002,0.05 -0.008,0.069 -0.012,0.104 0.102,0.312 0.233,0.658 0.351,0.967 0.116,0.081 0.263,0.305 0.357,0.592 C 0.159,-1.932 0,0 0,0"
           style="display:inline;fill:#ffb380;fill-opacity:1;fill-rule:nonzero;stroke:none;stroke-width:11.0047;stroke-miterlimit:4;stroke-dasharray:none;stroke-opacity:1"
           id="path4427"
           inkscape:connector-curvature="0"
           transform="translate(-1.7286015,-2.3768996)" />
        <path
           d="M 0,0 C -0.472,0.079 -2.326,0.943 -3.367,0.494 -4.408,0.045 -5.576,-0.49 -6.074,-0.74 -6.573,-0.99 -5.076,-1.487 -3.265,-1 -1.453,-0.514 0.521,-0.087 0,0"
           style="display:inline;fill:#ffb380;fill-opacity:1;fill-rule:nonzero;stroke:none;stroke-width:11.0047;stroke-miterlimit:4;stroke-dasharray:none;stroke-opacity:1"
           id="path4419"
           inkscape:connector-curvature="0"
           transform="translate(-2.5293,1.2032021)" />
        <path
           d="m 0,0 c 0.167,-0.138 0.333,-0.471 0.333,-0.471 0,0 0.386,0.831 0.083,1.524 C 0.112,1.745 0.138,0.443 -0.056,1.356 -0.248,2.271 -0.498,1.911 -0.748,2.159 -0.996,2.41 -0.94,2.05 -0.748,1.688 -0.748,1.688 -0.167,0.14 0,0"
           style="display:inline;fill:#ffb380;fill-opacity:1;fill-rule:nonzero;stroke:none;stroke-width:11.0047;stroke-miterlimit:4;stroke-dasharray:none;stroke-opacity:1"
           id="path4415"
           inkscape:connector-curvature="0"
           transform="translate(-9.7032013,10.979502)" />
        <path
           d="m 0,0 c -0.035,-0.047 -0.078,-0.108 -0.123,-0.177 -0.626,-0.475 -1.863,-2.139 -1.863,-2.41 0,-0.321 -0.32,-0.751 -0.32,-0.751 l -0.109,-0.43 c 0,0 0.216,-0.428 0.537,-0.214 0.322,0.215 0.43,0.752 0.484,1.288 0.049,0.52 0.451,0.981 0.774,1.009 0.036,-0.018 0.074,-0.037 0.137,-0.032 0.644,0.055 1.448,0.752 1.178,1.235 C 0.428,0 0.161,0.216 0,0"
           style="display:inline;fill:#ffb380;fill-opacity:1;fill-rule:nonzero;stroke:none;stroke-width:11.0047;stroke-miterlimit:4;stroke-dasharray:none;stroke-opacity:1"
           id="path4407"
           inkscape:connector-curvature="0"
           transform="translate(-12.0323,-27.918899)" />
        <path
           d="M 0,0 C 0.471,0.11 0.942,0.94 1.495,1.163 2.049,1.384 4.319,1.771 3.738,1.827 3.457,1.854 1.799,2.048 1.413,1.771 1.024,1.495 0.859,1.107 0.556,1.107 0.25,1.107 -0.747,0.969 -0.526,1.356 -0.304,1.743 -0.665,1.8 -0.83,1.606 -0.997,1.412 -1.134,0.775 -0.939,0.498 -0.747,0.221 -0.471,-0.111 0,0"
           style="display:inline;fill:#ffb380;fill-opacity:1;fill-rule:nonzero;stroke:none;stroke-width:11.0047;stroke-miterlimit:4;stroke-dasharray:none;stroke-opacity:1"
           id="path4411"
           inkscape:connector-curvature="0"
           transform="translate(-16.8506,12.158202)" />
        <path
           d="m 0,0 c -0.52,-0.623 -1.859,-2.231 -2.976,-2.338 -1.116,-0.106 -1.541,-0.318 -1.647,0.638 -0.106,0.956 0.478,0.637 0.16,1.062 -0.319,0.426 -1.116,0.479 -1.01,1.01 0.107,0.531 0.266,0.691 0.16,1.01 C -5.42,1.7 -5.154,1.86 -4.782,1.647 -4.41,1.435 -2.338,1.382 -1.541,1.7 -0.744,2.02 -1.68,1.409 -1.859,1.169 -2.179,0.744 -1.67,0.646 -1.42,0.907 -0.713,1.645 0.9,2.704 1.98,2.889 3.06,3.073 4.111,2.888 3.732,2.81 2.171,2.488 1.956,2.571 1.799,1.89 1.641,1.209 1.131,1.193 0.594,0.756 0.319,0.531 0.266,0.319 0,0"
           style="display:inline;fill:#ffb380;fill-opacity:1;fill-rule:nonzero;stroke:none;stroke-width:11.0047;stroke-miterlimit:4;stroke-dasharray:none;stroke-opacity:1"
           id="path4423"
           inkscape:connector-curvature="0"
           transform="translate(-3.9854011,-2.1161983)" />
      </g>
    </g>
    <g
       style="fill:#000000;stroke-width:19.2334"
       id="g2"
       transform="matrix(1.2998153,0,0,1.2998153,23.074097,19.279819)"
       inkscape:label="PythonLogo">
      <path
         id="compound_path"
         data-name="compound path"
         d="m 23.4882,9.14 v 2.9663 a 4.2843,4.2843 0 0 1 -4.173,4.2352 h -6.6721 a 3.4077,3.4077 0 0 0 -3.34,3.3945 v 6.3607 c 0,1.81 1.5742,2.8751 3.34,3.3945 a 11.1762,11.1762 0 0 0 6.6721,0 c 1.6817,-0.4869 3.34,-1.4668 3.34,-3.3945 V 23.55 H 15.983 v -0.8486 h 10.0121 c 1.9414,0 2.6648,-1.3542 3.34,-3.3867 a 11.4642,11.4642 0 0 0 0,-6.7889 c -0.48,-1.9327 -1.3961,-3.3867 -3.34,-3.3867 z m -3.7526,16.1076 a 1.2731,1.2731 0 1 1 -1.2534,1.269 1.2607,1.2607 0 0 1 1.2534,-1.269 z"
         style="fill:#ffb380;stroke-width:19.2334" />
      <path
         id="inner_path"
         data-name="inner path"
         class="cls-1"
         d="m 19.7356,25.2476 a 1.2731,1.2731 0 1 1 -1.2534,1.269 1.2607,1.2607 0 0 1 1.2534,-1.269 z"
         style="fill:none;stroke-width:19.2334" />
      <path
         id="compound_path-2"
         data-name="compound path"
         d="m 15.8351,2 a 19.0717,19.0717 0 0 0 -3.192,0.2725 c -2.8268,0.4994 -3.34,1.5447 -3.34,3.4723 v 2.5461 h 6.68 V 9.14 H 6.7962 a 4.1708,4.1708 0 0 0 -4.173,3.3867 12.4855,12.4855 0 0 0 0,6.7889 c 0.4748,1.9776 1.6088,3.3867 3.55,3.3867 H 8.47 V 19.65 a 4.2449,4.2449 0 0 1 4.173,-4.15 h 6.6721 a 3.3654,3.3654 0 0 0 3.34,-3.3944 V 5.745 A 3.729,3.729 0 0 0 19.3151,2.2727 20.8377,20.8377 0 0 0 15.8351,2 Z m -3.6125,2.0478 a 1.2731,1.2731 0 1 1 -1.2534,1.2768 1.2675,1.2675 0 0 1 1.2534,-1.2768 z"
         style="fill:#ffb380;stroke-width:19.2334" />
      <path
         id="inner_path-2"
         data-name="inner path"
         class="cls-1"
         d="M 12.2226,4.0478 A 1.2731,1.2731 0 1 1 10.9692,5.3246 1.2675,1.2675 0 0 1 12.2226,4.0478 Z"
         style="fill:none;stroke-width:19.2334" />
    </g>
    <g
       id="g4360"
       transform="matrix(0.32142857,0,0,0.32142857,61.98205,59.486731)"
       style="fill:#ffb380;stroke-width:3.11111"
       inkscape:label="OpenSimCreatorLogo">
      <path
         id="path3929"
         style="opacity:1;fill:#ffb380;fill-opacity:1;stroke:none;stroke-width:24.8889;stroke-linejoin:bevel;stroke-dasharray:none;stroke-opacity:1"
         d="M 66.999999,12.000001 A 55.999998,55.999998 0 0 0 63.000976,12.28711 C 49.402268,14.218589 38.999999,25.853412 38.999999,40 c 0,5.136605 1.394569,9.927141 3.792237,14.058104 A 27.999999,27.999999 0 0 1 66.999999,40 27.999999,27.999999 0 0 1 92.580076,56.630126 L 118.15844,45.263671 A 55.999998,55.999998 0 0 0 66.999999,12.000001 Z M 38.278808,20.040772 A 55.999998,55.999998 0 0 0 11,67.999999 55.999998,55.999998 0 0 0 66.999999,124 v -0.004 c 0.01202,7e-5 0.02394,-2.7e-4 0.03589,0 a 55.999998,55.999998 0 0 0 4.328857,-0.30932 c 13.497931,-2.01887 23.794186,-13.61187 23.794186,-27.687178 0,-5.223999 -1.422611,-10.102492 -3.896484,-14.280272 a 27.999999,27.999999 0 0 1 -24.262449,14.280768 27.999999,27.999999 0 0 1 -28,-27.999999 27.999999,27.999999 0 0 1 0.743408,-6.087402 C 34.905578,55.90848 32,48.286881 32,40 32,32.587536 34.326839,25.708039 38.278808,20.040772 Z m 61.082523,62.342039 c 1.782939,4.191704 2.797599,8.784378 2.797599,13.617187 0,7.350222 -2.286416,14.177482 -6.177975,19.817382 A 55.999998,55.999998 0 0 0 118.06786,90.69702 Z" />
    </g>
  </g>
</svg>
